<svg width="256" height="256" viewBox="0 0 256 256" fill="none" xmlns="http://www.w3.org/2000/svg">
<rect width="256" height="256" rx="25" fill="url(#paint0_linear_1_227)"/>
<path d="M147.682 104.955C147.833 101.167 146.727 98.2424 144.364 96.1818C142.03 94.1212 138.5 93.0909 133.773 93.0909C130.561 93.0909 127.773 93.5455 125.409 94.4545C123.045 95.3333 121.152 96.5606 119.727 98.1364C118.333 99.6818 117.47 101.47 117.136 103.5C116.803 105.167 116.909 106.621 117.455 107.864C118.03 109.106 118.924 110.182 120.136 111.091C121.379 111.97 122.848 112.742 124.545 113.409C126.242 114.045 128.045 114.591 129.955 115.045L137.955 117.045C141.864 117.955 145.379 119.167 148.5 120.682C151.652 122.197 154.288 124.061 156.409 126.273C158.561 128.485 160.076 131.091 160.955 134.091C161.833 137.091 161.955 140.53 161.318 144.409C160.348 150.106 158.091 155.045 154.545 159.227C151 163.379 146.348 166.606 140.591 168.909C134.833 171.182 128.167 172.318 120.591 172.318C113.076 172.318 106.727 171.167 101.545 168.864C96.3636 166.561 92.5909 163.152 90.2273 158.636C87.8939 154.091 87.197 148.47 88.1364 141.773H107.182C106.848 144.894 107.303 147.5 108.545 149.591C109.818 151.652 111.712 153.212 114.227 154.273C116.742 155.303 119.697 155.818 123.091 155.818C126.455 155.818 129.439 155.333 132.045 154.364C134.682 153.394 136.818 152.045 138.455 150.318C140.091 148.591 141.091 146.606 141.455 144.364C141.818 142.273 141.5 140.515 140.5 139.091C139.5 137.667 137.894 136.455 135.682 135.455C133.5 134.424 130.788 133.515 127.545 132.727L117.818 130.182C110.303 128.273 104.621 125.288 100.773 121.227C96.9242 117.167 95.5455 111.697 96.6364 104.818C97.6061 99.1818 99.9545 94.2576 103.682 90.0455C107.439 85.803 112.167 82.5151 117.864 80.1818C123.591 77.8182 129.848 76.6364 136.636 76.6364C143.545 76.6364 149.379 77.8333 154.136 80.2273C158.894 82.5909 162.364 85.8939 164.545 90.1364C166.727 94.3788 167.394 99.3182 166.545 104.955H147.682Z" fill="white"/>
<defs>
<linearGradient id="paint0_linear_1_227" x1="128" y1="0" x2="128" y2="262" gradientUnits="userSpaceOnUse">
<stop stop-color="#F43F5E"/>
<stop offset="0.966473" stop-color="#DB2777"/>
</linearGradient>
</defs>
</svg>
