<svg width="256" height="256" viewBox="0 0 256 256" fill="none" xmlns="http://www.w3.org/2000/svg">
<rect width="256" height="256" rx="25" fill="url(#paint0_linear_1_227)"/>
<path d="M144.909 107C145.182 104 144.455 101.652 142.727 99.9545C141 98.2273 138.091 97.3636 134 97.3636C131.394 97.3636 129.212 97.6667 127.455 98.2727C125.727 98.8788 124.379 99.7121 123.409 100.773C122.47 101.833 121.879 103.061 121.636 104.455C121.364 105.545 121.379 106.545 121.682 107.455C122.015 108.333 122.636 109.136 123.545 109.864C124.485 110.591 125.712 111.242 127.227 111.818C128.773 112.394 130.606 112.909 132.727 113.364L140 115C144.97 116.091 149.136 117.53 152.5 119.318C155.894 121.076 158.561 123.167 160.5 125.591C162.439 128.015 163.712 130.727 164.318 133.727C164.955 136.727 164.97 140 164.364 143.545C163.333 149.667 160.955 154.848 157.227 159.091C153.5 163.333 148.636 166.561 142.636 168.773C136.636 170.985 129.697 172.091 121.818 172.091C113.758 172.091 106.909 170.894 101.273 168.5C95.6667 166.076 91.6061 162.379 89.0909 157.409C86.6061 152.409 86 146.03 87.2727 138.273H111.273C110.909 141.121 111.212 143.515 112.182 145.455C113.152 147.394 114.712 148.864 116.864 149.864C119.015 150.864 121.697 151.364 124.909 151.364C127.636 151.364 129.97 151.03 131.909 150.364C133.848 149.697 135.379 148.773 136.5 147.591C137.621 146.409 138.303 145.061 138.545 143.545C138.788 142.152 138.545 140.909 137.818 139.818C137.091 138.727 135.773 137.742 133.864 136.864C131.955 135.985 129.333 135.182 126 134.455L117.091 132.455C109.182 130.636 103.212 127.636 99.1818 123.455C95.1515 119.273 93.7273 113.545 94.9091 106.273C95.8788 100.333 98.3182 95.1515 102.227 90.7273C106.167 86.2727 111.167 82.8182 117.227 80.3636C123.318 77.8788 130.061 76.6364 137.455 76.6364C144.97 76.6364 151.258 77.8939 156.318 80.4091C161.409 82.9242 165.061 86.4545 167.273 91C169.515 95.5455 170.121 100.879 169.091 107H144.909Z" fill="white"/>
<defs>
<linearGradient id="paint0_linear_1_227" x1="128" y1="0" x2="128" y2="262" gradientUnits="userSpaceOnUse">
<stop stop-color="#F43F5E"/>
<stop offset="0.966473" stop-color="#DB2777"/>
</linearGradient>
</defs>
</svg>
